# xmcd
#
# Track frame offsets:
#   150
#   13697
#   27427
#   40825
#   58547
#   72767
#   92762
#   108072
#   121980
#   135880
#   158085
#   178280
#   196480
#
# Disc length: 3004 seconds
#
# Revision: 0
# Processed by: cddbd v1.4PL0 Copyright (c) Steve Scherf et al.
# Submitted via: uFREEDB 1.6.0
#
DISCID=a50bba0d
DTITLE=Big Joe Turner - Blues Cafe Presents Big Joe Turner
DYEAR=1900
DGENRE=Blues
TTITLE0=shake, rattle and roll
TTITLE1=chains of love
TTITLE2=roll'm hawk
TTITLE3=piney brown blues
TTITLE4=cherry red
TTITLE5=nothin' from nothin' blues
TTITLE6=honey hush
TTITLE7=corinne corinna
TTITLE8=tv mama
TTITLE9=wee baby blues
TTITLE10=squeeze me, baby
TTITLE11=roll'em pete
TTITLE12=stormy monday blues
EXTD=
EXTT0=
EXTT1=
EXTT2=
EXTT3=
EXTT4=
EXTT5=
EXTT6=
EXTT7=
EXTT8=
EXTT9=
EXTT10=
EXTT11=
EXTT12=
PLAYORDER=
